<svg width="33" height="33" viewBox="0 0 33 33" fill="none" xmlns="http://www.w3.org/2000/svg">
<path d="M20.3048 27.2512H16.1064L21.1445 32.2892C27.3275 31.8312 32.2892 26.6405 32.2892 20.3049V16.1065H27.1748V20.3049C27.2512 24.1979 24.1215 27.2512 20.3048 27.2512Z" fill="#5082E6"/>
<path d="M5.03802 20.381V16.1827L0 21.2207C0.458002 27.4801 5.64869 32.3654 11.9844 32.3654H16.1827V27.2511H11.9844C8.1677 27.2511 5.03802 24.1977 5.03802 20.381Z" fill="#5AD2FF"/>
<path d="M11.9844 5.11435H16.1827L11.1447 0C4.88535 0.458002 0 5.64869 0 11.9844V16.1827H5.11435V11.9844C5.11435 8.1677 8.1677 5.11435 11.9844 5.11435Z" fill="#E62D32"/>
<path d="M27.2512 11.9844V16.1827L32.2893 11.1447C31.9076 4.88535 26.7169 0 20.3812 0H16.1829V5.11435H20.3812C24.1979 5.11435 27.2512 8.1677 27.2512 11.9844Z" fill="#FABE00"/>
</svg>
